<svg id="Layer_1" data-name="Layer 1" xmlns="http://www.w3.org/2000/svg" viewBox="0 0 245.95 38.93"><defs><style>.cls-1{fill:#fff;}</style></defs><title>Artboard 1</title><path class="cls-1" d="M14.27,5.18H12.44V0h9.91V24.7h1.92v5.18H15l-.68-1.47a5.14,5.14,0,0,1-.62.49,6,6,0,0,1-1.06.61,9.59,9.59,0,0,1-1.47.52,7.75,7.75,0,0,1-1.87.21,8.45,8.45,0,0,1-3.83-.85,9.13,9.13,0,0,1-2.91-2.31A10.91,10.91,0,0,1,.66,23.71a12.19,12.19,0,0,1-.66-4,11.1,11.1,0,0,1,.76-4.2,9.62,9.62,0,0,1,2-3.21,9,9,0,0,1,3-2,8.78,8.78,0,0,1,3.51-.72,7.5,7.5,0,0,1,3.28.58,19.21,19.21,0,0,1,1.74.93ZM8.57,19.72a7.76,7.76,0,0,0,.2,1.8,5.61,5.61,0,0,0,.58,1.54,3.91,3.91,0,0,0,.89,1.13,1.82,1.82,0,0,0,1.2.43,2.42,2.42,0,0,0,2-1.23A5.91,5.91,0,0,0,14.27,20a9.55,9.55,0,0,0-.21-2.07,6.37,6.37,0,0,0-.57-1.68,3.2,3.2,0,0,0-.92-1.11,1.88,1.88,0,0,0-1.17-.4,2.3,2.3,0,0,0-2.05,1.35A7.3,7.3,0,0,0,8.57,19.72Z"/><path class="cls-1" d="M44.87,27.13a13.2,13.2,0,0,1-4.7,2.69,18.53,18.53,0,0,1-5.58.78A12,12,0,0,1,30.84,30a10,10,0,0,1-3.37-1.92A9.78,9.78,0,0,1,25,24.72a11.53,11.53,0,0,1-1-4.93,10.78,10.78,0,0,1,.84-4.35,9.48,9.48,0,0,1,5.66-5.34,12.33,12.33,0,0,1,4.22-.7,12.19,12.19,0,0,1,4.36.72,9,9,0,0,1,3.17,2,8.38,8.38,0,0,1,1.92,3,10.93,10.93,0,0,1,.63,3.77,10.28,10.28,0,0,1-.12,1.57,8,8,0,0,1-.36,1.46H31.84a8.94,8.94,0,0,0,.26.95,3,3,0,0,0,.62,1.07,3.45,3.45,0,0,0,1.19.88,4.84,4.84,0,0,0,2,.36c.34,0,.72,0,1.13,0a7.18,7.18,0,0,0,1.34-.24,8.73,8.73,0,0,0,1.51-.58,7.27,7.27,0,0,0,1.59-1.05ZM35,14.78a2.81,2.81,0,0,0-1.49.36,3,3,0,0,0-.91.86,3.11,3.11,0,0,0-.48,1.05A6.35,6.35,0,0,0,32,18h6a5.59,5.59,0,0,0-.12-1.14,2.94,2.94,0,0,0-.42-1,2,2,0,0,0-.88-.74A3.47,3.47,0,0,0,35,14.78Z"/><path class="cls-1" d="M65.47,27.13a13.28,13.28,0,0,1-4.7,2.69,18.49,18.49,0,0,1-5.58.78A12,12,0,0,1,51.44,30a10,10,0,0,1-3.36-1.92,9.68,9.68,0,0,1-2.45-3.35,11.53,11.53,0,0,1-1-4.93,10.78,10.78,0,0,1,.84-4.35,9.5,9.5,0,0,1,5.65-5.34,12.39,12.39,0,0,1,4.23-.7,12.23,12.23,0,0,1,4.36.72,9,9,0,0,1,3.18,2,8.49,8.49,0,0,1,1.91,3,10.93,10.93,0,0,1,.63,3.77,10.28,10.28,0,0,1-.12,1.57A8.91,8.91,0,0,1,65,21.92H52.44c.06.26.14.57.26.95a3.17,3.17,0,0,0,.62,1.07,3.45,3.45,0,0,0,1.19.88,4.84,4.84,0,0,0,2,.36c.34,0,.72,0,1.13,0A7.18,7.18,0,0,0,59,24.9a8.73,8.73,0,0,0,1.51-.58,7.32,7.32,0,0,0,1.6-1.05ZM55.63,14.78a2.82,2.82,0,0,0-1.5.36,3.26,3.26,0,0,0-.91.86,3.32,3.32,0,0,0-.48,1.05,8.09,8.09,0,0,0-.18.92h6a5.59,5.59,0,0,0-.12-1.14,2.94,2.94,0,0,0-.42-1,2.08,2.08,0,0,0-.88-.74A3.46,3.46,0,0,0,55.63,14.78Z"/><path class="cls-1" d="M66.07,32.79h1.68V15.26H66.07V10H75.2l.67,1.39c.19-.13.43-.3.74-.49a7,7,0,0,1,1.06-.56A8.19,8.19,0,0,1,79,9.84a6.32,6.32,0,0,1,1.67-.2,9.43,9.43,0,0,1,4.09.84,8.34,8.34,0,0,1,3,2.27,9.85,9.85,0,0,1,1.77,3.33,13.08,13.08,0,0,1,.6,4,12.2,12.2,0,0,1-.7,4.28,9.53,9.53,0,0,1-1.91,3.22,8.45,8.45,0,0,1-2.89,2,9.16,9.16,0,0,1-3.59.71,10,10,0,0,1-2.16-.2,7.9,7.9,0,0,1-1.56-.47,6.41,6.41,0,0,1-1-.54,5.58,5.58,0,0,0-.48-.34v4H78V38H66.07ZM81.53,20.16a7.77,7.77,0,0,0-.2-1.78,5.88,5.88,0,0,0-.57-1.58,4,4,0,0,0-.92-1.1,1.83,1.83,0,0,0-1.17-.44,2.42,2.42,0,0,0-2,1.23,5.89,5.89,0,0,0-.86,3.38A10.34,10.34,0,0,0,76,22a6.75,6.75,0,0,0,.58,1.68,3.2,3.2,0,0,0,.92,1.11,1.89,1.89,0,0,0,1.18.4,2.31,2.31,0,0,0,2.05-1.36A7.24,7.24,0,0,0,81.53,20.16Z"/><path class="cls-1" d="M102.13,29.88H90.5V24.66h1.71V5.14H90.54V0h9.25V24.66h2.34Z"/><path class="cls-1" d="M117,15h-1.83V10h10.12V14.9h-1.91l-7.58,18.41c-.29.64-.63,1.29-1,2a7,7,0,0,1-1.54,1.8,7.51,7.51,0,0,1-2.41,1.35,11.26,11.26,0,0,1-3.6.51,7.12,7.12,0,0,1-2.73-.64,9.21,9.21,0,0,1-2.1-1.35l3-4.7a9.65,9.65,0,0,0,1.26.95,2.57,2.57,0,0,0,1.37.44,1.75,1.75,0,0,0,1.37-.68,4.4,4.4,0,0,0,.86-1.47l.56-1.67L103,15.06h-1.63V10h12.27V15h-1.87l2.59,6.21Z"/><path class="cls-1" d="M138.52,5.18h-1.83V0h9.92V24.7h1.91v5.18h-9.33l-.67-1.47a5.14,5.14,0,0,1-.62.49,6.21,6.21,0,0,1-1.05.61,10.14,10.14,0,0,1-1.48.52,7.7,7.7,0,0,1-1.87.21,8.45,8.45,0,0,1-3.83-.85,9.13,9.13,0,0,1-2.91-2.31,11.12,11.12,0,0,1-1.85-3.37,12.19,12.19,0,0,1-.66-4,11.1,11.1,0,0,1,.76-4.2,9.62,9.62,0,0,1,2-3.21,9,9,0,0,1,3-2,8.78,8.78,0,0,1,3.51-.72,7.5,7.5,0,0,1,3.28.58c.79.38,1.36.7,1.74.93Zm-5.7,14.54a7.76,7.76,0,0,0,.2,1.8,5.6,5.6,0,0,0,.57,1.54,4.31,4.31,0,0,0,.9,1.13,1.82,1.82,0,0,0,1.2.43,2.42,2.42,0,0,0,2-1.23,5.91,5.91,0,0,0,.86-3.39,10.24,10.24,0,0,0-.2-2.07,6.37,6.37,0,0,0-.58-1.68,3.2,3.2,0,0,0-.92-1.11,1.86,1.86,0,0,0-1.17-.4,2.33,2.33,0,0,0-2.06,1.35A7.41,7.41,0,0,0,132.82,19.72Z"/><path class="cls-1" d="M160.28,29.88H149.12V24.66h1.67V15.14h-1.67V10h9.24v14.7h1.92ZM150.23,4.14a3.69,3.69,0,0,1,.29-1.39,4.13,4.13,0,0,1,.81-1.32,4.21,4.21,0,0,1,1.36-1,4.81,4.81,0,0,1,3.7,0,4.65,4.65,0,0,1,1.38,1,4.45,4.45,0,0,1,.85,1.32,3.52,3.52,0,0,1,.3,1.39A4,4,0,0,1,157.81,7a4.29,4.29,0,0,1-3.27,1.17,4.1,4.1,0,0,1-1.74-.35,4.61,4.61,0,0,1-1.35-.94,4.07,4.07,0,0,1-.89-1.3A3.35,3.35,0,0,1,150.23,4.14Z"/><path class="cls-1" d="M163.34,30.12a6.66,6.66,0,0,0,1.06.74,15.81,15.81,0,0,0,1.61.84,12.48,12.48,0,0,0,2,.7,9.43,9.43,0,0,0,2.25.28,6,6,0,0,0,2.24-.37,4.26,4.26,0,0,0,1.41-.89,3.09,3.09,0,0,0,.76-1.2,4.26,4.26,0,0,0,.22-1.29V27.58a5.36,5.36,0,0,1-.6.65,5.66,5.66,0,0,1-1,.72,6.52,6.52,0,0,1-1.35.58,5.88,5.88,0,0,1-1.73.24,10.14,10.14,0,0,1-4.41-.87,8.4,8.4,0,0,1-3-2.24,9.28,9.28,0,0,1-1.67-3.19,12.71,12.71,0,0,1-.54-3.68,13.2,13.2,0,0,1,.64-4.19,8.73,8.73,0,0,1,1.89-3.23,8.49,8.49,0,0,1,3.13-2.07,11.64,11.64,0,0,1,4.34-.74,6.46,6.46,0,0,1,4.23,1.63l.79-1.23h9.49v5.21h-2.39V27.09a12.78,12.78,0,0,1-.76,4.49A8.83,8.83,0,0,1,179.72,35a10.88,10.88,0,0,1-3.88,2.22,16.75,16.75,0,0,1-5.48.8,12.32,12.32,0,0,1-3.05-.36,14.83,14.83,0,0,1-2.59-.89,13.51,13.51,0,0,1-2.06-1.14,13.07,13.07,0,0,1-1.43-1.11Zm5.82-10.4a8.34,8.34,0,0,0,.2,1.8,5.61,5.61,0,0,0,.58,1.54,4.09,4.09,0,0,0,.89,1.13,1.82,1.82,0,0,0,1.2.43,2.42,2.42,0,0,0,2-1.23,5.91,5.91,0,0,0,.86-3.39,10.24,10.24,0,0,0-.2-2.07,6.37,6.37,0,0,0-.58-1.68,3.2,3.2,0,0,0-.92-1.11,1.86,1.86,0,0,0-1.17-.4,2.32,2.32,0,0,0-2.05,1.35A7.3,7.3,0,0,0,169.16,19.72Z"/><path class="cls-1" d="M196.94,29.88H185.78V24.66h1.67V15.14h-1.67V10H195v14.7h1.92ZM186.89,4.14a3.67,3.67,0,0,1,.28-1.39A4.35,4.35,0,0,1,188,1.43a4.21,4.21,0,0,1,1.36-1,4.81,4.81,0,0,1,3.7,0,4.31,4.31,0,0,1,2.23,2.3,3.52,3.52,0,0,1,.3,1.39A4,4,0,0,1,194.47,7a4.29,4.29,0,0,1-3.27,1.17,4.05,4.05,0,0,1-1.73-.35,4.53,4.53,0,0,1-1.36-.94,4.46,4.46,0,0,1-.9-1.3A3.49,3.49,0,0,1,186.89,4.14Z"/><path class="cls-1" d="M197.53,10h2.15V6.29L207,3.94v6h3.8v5.18H207v7.09c0,.19,0,.37,0,.56a5.82,5.82,0,0,0,0,.6,4.05,4.05,0,0,0,.22,1.41c.14.42.51.62,1.1.62a5.13,5.13,0,0,0,1.17-.22,10.36,10.36,0,0,0,1.34-.46v5.11a6.35,6.35,0,0,1-1.12.33c-.46.09-.92.16-1.39.22l-1.34.14c-.42,0-.74.06-1,.06a8.18,8.18,0,0,1-3.48-.6,4,4,0,0,1-1.86-1.67,6.9,6.9,0,0,1-.75-2.63c-.11-1-.18-2.19-.21-3.47V15.14h-2.15Z"/><path class="cls-1" d="M211.84,11.63c.4-.24.9-.52,1.52-.84s1.28-.63,2-.93a16.41,16.41,0,0,1,2.43-.76,12,12,0,0,1,2.7-.3,19.21,19.21,0,0,1,3.7.38,10.7,10.7,0,0,1,3.49,1.32A7.61,7.61,0,0,1,230.31,13a7.3,7.3,0,0,1,1,4v7.77h2.39v5.1h-8.53l-1-1.79A5.29,5.29,0,0,1,223,29.34a5.79,5.79,0,0,1-1.44.78,6.69,6.69,0,0,1-1.45.4,7.67,7.67,0,0,1-1.24.12,10.57,10.57,0,0,1-2.83-.4,7.91,7.91,0,0,1-2.5-1.19A5.92,5.92,0,0,1,211,24a6.81,6.81,0,0,1,.66-3,6.91,6.91,0,0,1,1.79-2.31,8.3,8.3,0,0,1,2.66-1.48,9.86,9.86,0,0,1,3.18-.52,6.27,6.27,0,0,1,1.57.18,6.4,6.4,0,0,1,1.2.42,4.57,4.57,0,0,1,.8.47l.38.33v-1.4a1.73,1.73,0,0,0-1.08-1.79,7,7,0,0,0-2.71-.44,8.76,8.76,0,0,0-3.29.6,23.62,23.62,0,0,0-2.64,1.23Zm8.85,13.83a2.87,2.87,0,0,0,1.59-.44,3.2,3.2,0,0,0,1-.87V22.63a2.11,2.11,0,0,0-.18-.26,2,2,0,0,0-.42-.37,2.7,2.7,0,0,0-.7-.36,2.92,2.92,0,0,0-1.06-.16,2.23,2.23,0,0,0-1.74.6,2.08,2.08,0,0,0-.57,1.51,1.68,1.68,0,0,0,.6,1.35A2.21,2.21,0,0,0,220.69,25.46Z"/><path class="cls-1" d="M246,29.88H234.32V24.66H236V5.14h-1.67V0h9.24V24.66H246Z"/></svg>