<?xml version="1.0" encoding="UTF-8"?>
<svg width="480px" height="124px" viewBox="0 0 480 124" version="1.1" xmlns="http://www.w3.org/2000/svg" xmlns:xlink="http://www.w3.org/1999/xlink">
    <g id="Page-1" stroke="none" stroke-width="1" fill="none" fill-rule="evenodd">
        <g id="Logo_Pfister" transform="translate(-2.000000, -4.000000)" fill-rule="nonzero">
            <path d="M369.953474,75.6477421 C371.431526,66.0132154 376.336581,54.2167608 389.748047,54.2167608 C404.466903,54.2167608 407.572989,66.9702252 407.572989,75.6477421 L369.953474,75.6477421 Z M454.361088,58.314105 C454.361088,52.7427423 454.190461,46.6971644 453.87426,43.7576724 L438.326398,43.7576724 C438.826454,47.5174877 439.146653,63.5436662 439.146653,72.8748784 L439.146653,125.379844 L455.989019,125.379844 L455.989019,86.2734928 C455.989019,83.8295787 456.318072,78.0873495 456.813718,74.994047 C458.608209,65.5176034 465.807401,58.314105 475.792308,58.314105 C477.257577,58.314105 479.381189,58.4551322 480.039088,58.6430888 L482.000003,43.4158369 C481.513175,43.2706055 478.898394,42.7792318 475.792308,42.7792318 C466.948163,42.7792318 458.608209,48.6624882 454.848394,58.314105 L454.361088,58.314105 Z M346.890391,57.6518989 L346.890391,43.7576724 L326.117377,43.7576724 L326.117377,22.4847743 L309.270773,27.3853859 L309.270773,104.102674 C309.270773,117.360329 315.649539,127.332385 332.65867,127.332385 C340.520102,127.332385 347.719225,124.888471 348.851271,124.226265 L345.420679,111.152362 C344.446545,111.797512 340.520102,113.596241 336.426859,113.596241 C328.740805,113.596241 326.117377,109.174186 326.117377,101.000826 L326.117377,57.6518989 L346.890391,57.6518989 Z M296.842156,102.145895 C296.842156,89.554752 290.458947,83.1801903 276.884989,77.7754558 L271.155543,75.489659 C263.144573,72.2211832 260.363164,69.5935508 260.363164,64.5349244 C260.363164,58.9635618 264.44793,54.5415063 272.79219,54.5415063 C280.320332,54.5415063 285.716521,58.1432384 287.19054,59.6087119 L294.069122,47.5174877 C288.989201,43.9157556 281.465366,41.7880419 273.12114,41.7880419 C255.129569,41.7880419 244.183209,52.9179155 244.183209,66.3165642 C244.183209,76.4723038 249.886951,83.1801903 262.653404,88.2431233 L268.374134,90.5374652 C277.372295,94.1349248 280.320332,97.8819225 280.320332,103.466103 C280.320332,109.998748 275.739954,114.403747 266.088611,114.403747 C257.103267,114.403747 250.224548,109.832119 248.41741,108.366646 L241.389153,121.12011 C242.371593,121.931889 251.861025,127.332385 266.421593,127.332385 C285.075678,127.332385 296.842156,117.202246 296.842156,102.145895 Z M424.752713,79.2409292 C424.752713,62.3986657 417.070727,41.7880419 390.410287,41.7880419 C366.360287,41.7880419 352.286444,60.2709521 352.286444,85.6283427 C352.286444,110.485815 367.167792,127.332385 392.529456,127.332385 C405.44948,127.332385 414.443197,124.546669 420.659471,121.773806 L416.250472,108.524729 C412.657285,110.323493 405.120393,113.425341 395.481526,113.425341 C381.079143,113.425341 370.115829,106.708909 369.470543,88.5592555 L424.26551,88.5592555 C424.432104,87.1065995 424.752713,84.1628693 424.752713,79.2409292 Z M229.285043,43.7576724 L183.979303,43.7576724 L183.979303,38.6776493 C183.979303,27.5562524 186.427319,17.2595197 200.343113,17.2595197 C208.349777,17.2595197 212.605204,21.6729959 213.750273,22.4847743 L221.93187,10.5388499 C218.159442,7.5993579 210.96883,3.99762575 200.830078,3.99762575 C178.091809,3.99762575 167.132801,18.4002818 167.132801,39.9892779 L167.132801,125.379844 L183.979303,125.379844 L183.979303,57.6518989 L212.429791,57.6518989 L212.429791,125.379844 L229.285043,125.379844 L229.285043,43.7576724 Z M154.853587,44.5609057 C154.853587,34.2470488 150.768821,26.0736888 144.231869,20.5194504 C137.037018,14.1448545 126.560806,10.872072 112.004271,10.872072 C99.900468,10.872072 91.0732763,11.8590235 82.895678,13.3245312 L82.895678,125.379844 L99.900468,125.379844 L99.900468,80.8773034 C100.72062,81.0481699 105.787826,81.7018651 112.166865,81.7018651 C125.573888,81.7018651 137.519984,77.4464378 145.048091,69.7516682 C151.585077,63.0437817 154.853587,54.8619451 154.853587,44.5609057 Z M137.686475,45.3897741 C137.686475,59.6087119 128.043335,67.9657559 110.538865,67.9657559 C105.138335,67.9657559 101.211892,67.299209 99.7421456,66.9702252 L99.7421456,25.257638 C100.72062,25.116645 106.441453,24.4458597 112.333254,24.4458597 C128.192839,24.4458597 137.686475,31.1622912 137.686475,45.3897741 Z" id="path2926" fill="#fff"></path>
            <polygon id="path2928" fill="#C9252B" points="2.00000492 125.379844 65.2204445 125.379844 65.2204445 11.5556748 2.00000492 11.5556748"></polygon>
        </g>
    </g>
</svg>
