<svg xmlns="http://www.w3.org/2000/svg" viewBox="0 0 216.81 88.17"><defs><style>.cls-1,.cls-2{fill:#0e9c62;}.cls-2{fill-rule:evenodd;}</style></defs><title>Vipu-final-logo</title><g id="Layer_2" data-name="Layer 2"><g id="Layer_1-2" data-name="Layer 1"><polygon class="cls-1" points="10.82 23.61 21.64 47.09 32.41 23.61 43.27 23.61 21.55 68.3 0 23.61 10.82 23.61 10.82 23.61"/><path class="cls-1" d="M62.25,6.22A6,6,0,0,1,64.1,1.85a6.27,6.27,0,0,1,8.89,0,6,6,0,0,1,1.85,4.42A6.08,6.08,0,0,1,73,10.73a5.94,5.94,0,0,1-4.42,1.85,6.08,6.08,0,0,1-4.46-1.85,6.13,6.13,0,0,1-1.85-4.51Z"/><polygon class="cls-1" points="73.37 23.61 73.37 65.42 63.71 65.42 63.71 23.61 73.37 23.61 73.37 23.61"/><path class="cls-2" d="M107,88.17H97.35V23.61H107v4.55a17.88,17.88,0,0,1,13-5.71,18.08,18.08,0,0,1,14.21,6.35q5.67,6.31,5.67,15.92,0,9.4-5.62,15.67a18.1,18.1,0,0,1-14.08,6.22q-7.34,0-13.14-5.88V88.17Zm23-43.4A14.44,14.44,0,0,0,126.71,35a10.55,10.55,0,0,0-8.33-3.82,11,11,0,0,0-8.63,3.69,14,14,0,0,0-3.31,9.7,14.29,14.29,0,0,0,3.31,9.7A10.84,10.84,0,0,0,118.34,58a10.47,10.47,0,0,0,8.29-3.78A13.72,13.72,0,0,0,130,44.77Z"/><path class="cls-1" d="M168.56,23.61v24q0,10.39,8.2,10.39T185,47.61v-24h9.66V47.82a26.93,26.93,0,0,1-1.25,8.67,14.57,14.57,0,0,1-4.16,5.88,20.3,20.3,0,0,1-24.85,0,14.79,14.79,0,0,1-4.25-5.88,23.88,23.88,0,0,1-1.2-8.67V23.61Z"/><path class="cls-2" d="M202,6l.2,13L204,19,204,13.33h.78c1,0,1.73.28,3.49,2.91L210,18.87l2.22,0c-.91-1.22-1.24-1.66-1.81-2.54a10.59,10.59,0,0,0-2.95-3.55,3.25,3.25,0,0,0,2.12-3.21c0-2.24-1.69-3.61-4.32-3.57L202,6Zm1.89,1.57,1.2,0c1.81,0,2.54.7,2.58,1.92s-.52,2.12-2.52,2.15l-1.2,0-.06-4.07Z"/><path class="cls-1" d="M207.09,22.39a9.81,9.81,0,1,1,9.72-9.81A9.78,9.78,0,0,1,207.09,22.39Zm0-18.47a8.66,8.66,0,1,0,8.58,8.66A8.63,8.63,0,0,0,207.09,3.92Z"/></g></g></svg>